<svg height="505pt" viewBox="0 -48 505.76687 505" width="505pt" xmlns="http://www.w3.org/2000/svg"><path d="m495.007812 243.519531c-.335937 1.007813-.671874 2.097657-1.09375 3.105469-5.886718 15.425781-15.351562 29.230469-27.613281 40.289062-25.957031 24.210938-61.292969 35.703126-96.523437 31.390626-13.320313-1.746094-26.171875-6.046876-37.855469-12.675782l-24.929687-62.109375zm0 0" fill="#2e7d32"/><path d="m465.125 243.519531c-.335938 1.007813-.671875 2.097657-1.089844 3.105469-5.886718 15.425781-15.351562 29.230469-27.613281 40.289062-18.453125 17.078126-41.726563 28.039063-66.644531 31.390626-13.320313-1.746094-26.171875-6.046876-37.855469-12.675782l-24.929687-62.109375zm0 0" fill="#4caf50"/><path d="m495.007812 243.519531c-8.144531 15.273438-45.996093 22.914063-79.90625 22.914063-3.609374 0-7.21875-.167969-10.996093-.335938-17.640625-1.363281-35.136719-4.230468-52.292969-8.5625l13.179688-66.222656.25-1.261719c12.257812.335938 24.511718 1.09375 36.765624 2.4375 18.464844 2.097657 111.464844 16.535157 93 51.03125zm0 0" fill="#bfa885"/><path d="m470.664062 243.519531c-7.050781 13.261719-36.679687 20.816407-66.558593 22.578125-17.640625-1.363281-35.136719-4.230468-52.292969-8.5625l13.179688-66.222656c4.28125.335938 8.476562.671875 12.671874 1.175781 18.46875 2.097657 111.46875 16.535157 93 51.03125zm0 0" fill="#ffe0b2"/><path d="m343.757812 280.113281c-13.0625 34.671875-34.453124 65.601563-62.28125 90.0625-9.59375 8.152344-20.234374 14.984375-31.644531 20.3125-19.664062 8.347657-41.078125 11.746094-62.363281 9.902344-22.695312-1.78125-45.070312-6.492187-66.558594-14.015625l196.40625-336.578125 9.316406-15.945313.085938.082032c51.871094 68.15625 47.839844 169.296875 17.039062 246.179687zm0 0" fill="#558b30"/><path d="m323.695312 280.113281c-13.0625 34.671875-34.449218 65.601563-62.277343 90.0625-9.597657 8.152344-20.238281 14.984375-31.644531 20.3125-13.367188 5.886719-27.710938 9.246094-42.304688 9.902344-22.695312-1.78125-45.070312-6.492187-66.558594-14.015625l196.40625-336.578125c40.457032 67.316406 34.832032 159.226563 6.378906 230.316406zm0 0" fill="#8bc34a"/><path d="m68.425781 368.101562c17.558594 10.214844 37.054688 16.652344 57.242188 18.902344 64.296875 7.320313 118.199219-39.875 151.679687-97.277344 19.886719-35.527343 35.277344-73.386718 45.828125-112.710937 10.070313-35.25 17.625-72.753906 14.015625-107.390625-2.179687-20.933594-9.230468-42.28125-27.175781-52.78125l-1.242187-.71875.132812.074219-1.242188-.730469c-17.976562-10.5-41.824218-7.191406-63.195312 0-35.914062 13.679688-69.308594 33.230469-98.8125 57.855469-33.402344 25.257812-63.722656 54.351562-90.339844 86.679687-41.65625 52.628906-64.570312 117.9375-29.804687 168.488282 11.25 16.230468 25.949219 29.777343 43.039062 39.667968zm0 0" fill="#cddc39"/><path d="m87.292969 340.597656c-13.992188-8.078125-26.019531-19.160156-35.207031-32.449218-32.585938-47.421876 7.636718-107.714844 26.394531-131.449219 24.644531-29.871094 52.71875-56.738281 83.640625-80.050781 21.589844-16.859376 54.089844-40.523438 87.738281-51.851563 12.179687-4.082031 28.875-7.714844 39.019531-1.78125l2.351563 1.367187c10.15625 5.9375 13.78125 21.445313 15.023437 33.40625 3.398438 32.9375-5.742187 70.253907-12.910156 95.453126-9.695312 36.398437-23.886719 71.449218-42.25 104.335937-15.109375 25.871094-56.707031 85.355469-116.964844 78.496094-16.519531-1.832031-32.476562-7.101563-46.835937-15.476563zm0 0" fill="#ffe0b2"/><path d="m210.636719 182.164062c-22.222657-22.222656-61.496094-18.980468-87.71875 7.242188-26.222657 26.222656-29.464844 65.496094-7.242188 87.71875 22.222657 22.222656 61.5 18.980469 87.722657-7.242188 26.222656-26.222656 29.464843-65.496093 7.238281-87.71875zm0 0" fill="#795548"/><path d="m301.394531 175.539062c7.359375-25.859374 16.726563-64.21875 13.1875-98.621093-2.109375-20.203125-8.546875-33.574219-19.136719-39.777344l-2.386718-1.359375c-10.347656-6.035156-25.800782-5.675781-45.9375 1.074219-34.875 11.75-68.195313 35.984375-90.210938 53.1875-31.433594 23.722656-59.96875 51.058593-85.015625 81.441406-19.945312 25.183594-62.492187 89.417969-26.726562 141.414063 9.886719 14.3125 22.828125 26.246093 37.886719 34.941406 15.359374 8.957031 32.421874 14.601562 50.09375 16.570312 3.515624.402344 7.054687.605469 10.59375.605469 59.355468 0 99.527343-57.414063 114.570312-83.222656 18.714844-33.492188 33.1875-69.183594 43.082031-106.253907zm-166.332031 172.199219c-15.359375-1.703125-30.191406-6.605469-43.539062-14.394531-12.917969-7.457031-24.027344-17.683594-32.523438-29.945312-29.417969-42.808594 8.394531-99.21875 26.019531-121.488282 24.242188-29.347656 51.847657-55.746094 82.257813-78.644531 21.058594-16.453125 52.800781-39.59375 85.234375-50.511719 14.695312-4.929687 26.414062-5.835937 32.121093-2.519531l2.351563 1.367187c5.472656 3.207032 9.449219 13.0625 10.910156 27.019532 3.238281 31.515625-5.664062 67.769531-12.648437 92.328125-9.503906 35.71875-23.417969 70.117187-41.421875 102.398437-14.269531 24.46875-53.433594 80.695313-108.761719 74.390625zm0 0"/><path d="m204.996094 167.316406c-31.054688-18.164062-75.1875-5.324218-98.363282 28.621094-12.042968 16.910156-16.566406 38.046875-12.496093 58.410156 3.386719 15.800782 13.253906 29.453125 27.195312 37.625 9.554688 5.496094 20.40625 8.34375 31.433594 8.242188 26.972656-.675782 51.9375-14.425782 66.925781-36.863282 12.058594-16.910156 16.589844-38.050781 12.523438-58.417968-3.394532-15.800782-13.269532-29.453125-27.21875-37.617188zm.839844 86.566406c-18.316407 26.859376-52.425782 37.402344-76.035157 23.597657-9.910156-5.839844-16.914062-15.570313-19.304687-26.820313-3.039063-15.820312.582031-32.191406 10.003906-45.257812 11.78125-17.867188 31.488281-28.917969 52.878906-29.652344 8.121094-.070312 16.117188 2.027344 23.15625 6.078125 9.925782 5.839844 16.933594 15.589844 19.304688 26.859375 3.019531 15.804688-.609375 32.152344-10.03125 45.195312zm0 0"/><path d="m176.660156 190.136719c-16.871094-1.804688-49.949218 5.96875-54.558594 48.394531-.398437 4.554688 2.917969 8.589844 7.460938 9.082031 4.542969.488281 8.644531-2.742187 9.226562-7.277343 3.851563-35.503907 32.734376-33.839844 36.089844-33.503907 4.613282.484375 8.742188-2.855469 9.230469-7.46875.488281-4.609375-2.855469-8.738281-7.464844-9.226562zm0 0"/><path d="m402.921875 184.144531c-9.234375-1.015625-18.875-1.679687-28.875-2.082031 3.25-52.59375-6.585937-108.425781-40.671875-153.207031l-.078125-.089844c-4.644531-7.882813-11.195313-14.472656-19.050781-19.164063l-.058594.101563c-.324219-.273437-.664062-.519531-1.023438-.738281l-.472656.761718.320313-.839843c-.367188-.214844-.746094-.398438-1.140625-.550781v-.09375c-17.492188-10.222657-41.128906-10.476563-70.113282-.738282-40.285156 13.539063-77.09375 40.289063-101.289062 59.171875-33.949219 25.667969-64.753906 55.246094-91.765625 88.132813-51.929687 65.628906-62.933594 130.6875-30.109375 178.425781 11.859375 17.164063 27.359375 31.496094 45.402344 41.96875l.191406.109375c16.621094 9.628906 34.902344 16.039062 53.894531 18.902344.042969.03125.09375.0625.144531.082031 25.695313 9.191406 52.703126 14.195313 79.988282 14.816406 18.933594.332031 37.714844-3.414062 55.070312-10.988281 12.097656-5.640625 23.390625-12.875 33.570313-21.511719 19.644531-16.835937 36.082031-37.089843 48.515625-59.777343 15.398437 7.179687 32.1875 10.871093 49.175781 10.808593 32.433594-.183593 63.625-12.507812 87.429687-34.539062 13.167969-11.890625 23.34375-26.722657 29.695313-43.292969.410156-.996094.769531-2.0625 1.300781-3.667969 3.726563-7.109375 3.726563-15.59375 0-22.703125-15.183594-28.863281-91.378906-38.308594-100.050781-39.296875zm-276.304687 194.527344c-18.917969-2.085937-37.195313-8.089844-53.667969-17.628906l-.160157-.089844c-16.042968-9.261719-29.828124-21.96875-40.363281-37.210937-40.289062-58.585938 7.195313-130.382813 29.46875-158.515626 26.203125-31.835937 56.066407-60.464843 88.972657-85.304687 23.242187-18.164063 58.519531-43.789063 96.3125-56.503906 24.226562-8.132813 43.160156-8.394531 56.296874-.679688l.058594-.109375c.320313.273438.664063.519532 1.023438.738282l.46875-.765626-.316406.839844c.363281.214844.746093.402344 1.140624.554688v.09375c12.875 7.554687 20.640626 23.140625 23.066407 46.390625 3.792969 36.789062-6.035157 77.109375-13.757813 104.253906-10.332031 38.660156-25.445312 75.878906-44.996094 110.792969-18.074218 30.847656-68.140624 101.710937-143.546874 93.144531zm198.085937-77.273437-.058594.078124c0 .050782 0 .109376-.050781.160157-11.925781 23.691406-28.410156 44.796875-48.503906 62.109375-9.019532 7.664062-19.019532 14.085937-29.738282 19.105468-22.574218 9.253907-47.296874 11.984376-71.34375 7.871094 41.445313-12.347656 79.820313-45.695312 109.601563-96.769531 20.253906-36.125 35.921875-74.636719 46.640625-114.644531 8.941406-29.21875 14.019531-59.480469 15.109375-90.019532 21.535156 63.296876 10.121094 136.476563-10.398437 187.695313-3.453126 8.558594-7.238282 16.675781-11.273438 24.414063zm135.921875-20.65625c-31.414062 29.910156-77.613281 38.253906-117.507812 21.21875 2.929687-6.050782 5.769531-12.234376 8.394531-18.722657 2.039062-5.089843 3.960937-10.433593 5.808593-15.90625 18.933594 4.550781 38.300782 7.0625 57.773438 7.496094 19.527344.222656 38.988281-2.382813 57.769531-7.730469-3.667969 4.902344-7.769531 9.46875-12.253906 13.644532zm26.988281-41.167969c-4.726562 8.878906-33.792969 18.464843-72.496093 18.464843-17.796876-.410156-35.503907-2.6875-52.828126-6.796874 4.816407-17.183594 8.261719-34.722657 10.300782-52.453126 9.910156.421876 19.402344 1.042969 28.484375 2.039063 31.382812 3.570313 79.144531 15.363281 87.050781 30.429687 1.390625 2.652344 1.1875 5.859376-.53125 8.316407zm0 0"/></svg>